<svg xmlns="http://www.w3.org/2000/svg" viewBox="0 0 120 120"><defs><style>.cls-1{fill:none;}.cls-2{fill:#82bb26;}.cls-3{fill:#47493d;}.cls-4{fill:#fff;}</style></defs><title>Asset 2</title><g id="Layer_2" data-name="Layer 2"><g id="Layer_1-2" data-name="Layer 1"><rect class="cls-1" width="120" height="120"/><g id="Layer_2-2" data-name="Layer 2-2"><path class="cls-2" d="M112.57,87.39V32.54a5,5,0,0,0-2.47-4.29L62.45.67a5,5,0,0,0-5,0L9.91,28.29a5,5,0,0,0-2.48,4.29V87.43A5,5,0,0,0,9.9,91.72l47.65,27.61a5,5,0,0,0,5,0l47.57-27.65A5,5,0,0,0,112.57,87.39Z"/><path class="cls-3" d="M74.26,52.58V39.17c2.34,1.36,4.22,2.37,6,3.54.35.23.43,1.08.43,1.64,0,7.32.06,14.63,0,21.95a3.38,3.38,0,0,1-1.34,2.35,64.1,64.1,0,0,1-6.72,3.89,3.22,3.22,0,0,1-2.51,0,64.09,64.09,0,0,1-6.9-4,3.48,3.48,0,0,1-1.32-2.37,50.5,50.5,0,0,1,0-7.38,3.75,3.75,0,0,1,1.4-2.53,42,42,0,0,1,6.93-3.94C71.22,51.92,72.7,52.46,74.26,52.58Zm-.1,10a3.48,3.48,0,0,0-2.8-3.42c-1.33-.07-3,1.73-3,3.23a3.5,3.5,0,0,0,3,3.32C72.54,65.76,74.15,64,74.16,62.62Z"/><path class="cls-3" d="M30.58,72.82c-1.89-1.09-3.65-2-5.29-3.11a2.53,2.53,0,0,1-.7-1.72c-.1-1.26,0-2.53,0-3.8,0-1.79-1.48-3.5-3-3.45a3.38,3.38,0,0,0-2.87,3.38c-.08,5.54-.08,5.54-5,8.11-.29.15-.6.26-1.2.51a11.42,11.42,0,0,1-.37-1.92c0-3.53-.11-7.07.05-10.59a3.67,3.67,0,0,1,1.44-2.49A53.25,53.25,0,0,1,20.23,54a3.51,3.51,0,0,1,2.7,0,69.2,69.2,0,0,1,6.75,3.86,3,3,0,0,1,1.33,2c.12,3.86.07,7.73,0,11.59A5.62,5.62,0,0,1,30.58,72.82Z"/><path class="cls-3" d="M102.25,69.52c-2.15,1.2-4,2.29-5.83,3.23A2,2,0,0,1,95,72.48c-2.4-1.3-4.8-2.59-7.09-4.07a3.2,3.2,0,0,1-1.25-2.2,63.11,63.11,0,0,1,0-7.78,3.22,3.22,0,0,1,1.25-2.2c2.27-1.49,4.65-2.84,7.06-4.1a2.64,2.64,0,0,1,2.15,0c2.4,1.26,4.76,2.67,7.09,4.08a2.94,2.94,0,0,1,0,5.06c-1.51.92-3.07,1.76-4.8,2.76a5.76,5.76,0,0,1-.4-1.56c.4-2-1-2.75-2.36-3a4.6,4.6,0,0,0-3,.92c-1.09.68-.75,3.59.43,4.32,2.06,1.23,4.16,2.4,6.22,3.6C100.83,68.53,101.35,68.91,102.25,69.52Z"/><path class="cls-4" d="M55.8,67V57.16a.91.91,0,0,0-.44-.77l-8.51-4.93a.89.89,0,0,0-.89,0L37.45,56.4a.91.91,0,0,0-.44.76V67a.9.9,0,0,0,.45.77L46,72.69a.89.89,0,0,0,.89,0l8.52-5A.88.88,0,0,0,55.8,67Z"/><path class="cls-2" d="M49.6,63.75V60.41a.3.3,0,0,0-.15-.26l-2.89-1.67a.32.32,0,0,0-.3,0l-2.89,1.68a.28.28,0,0,0-.15.26v3.33a.31.31,0,0,0,.15.26l2.89,1.67a.27.27,0,0,0,.3,0L49.45,64A.3.3,0,0,0,49.6,63.75Z"/></g></g></g></svg>