<?xml version="1.0" encoding="utf-8"?>
<!-- Generator: Adobe Illustrator 21.0.2, SVG Export Plug-In . SVG Version: 6.00 Build 0)  -->
<svg version="1.1" id="Layer_2_1_" xmlns="http://www.w3.org/2000/svg" xmlns:xlink="http://www.w3.org/1999/xlink" x="0px" y="0px"
	 viewBox="0 0 512.1 511.5" style="enable-background:new 0 0 512.1 511.5;" xml:space="preserve">
<style type="text/css">
	.st0{fill:#61DAFB;}
</style>
<g>
	<path class="st0" d="M501.4,254.6c0-32.5-40.7-63.3-103.1-82.4c14.4-63.6,8-114.2-20.2-130.4c-6.5-3.8-14.1-5.6-22.4-5.6v22.3
		c4.6,0,8.3,0.9,11.4,2.6c13.6,7.8,19.5,37.5,14.9,75.7c-1.1,9.4-2.9,19.3-5.1,29.4c-19.6-4.8-41-8.5-63.5-10.9
		c-13.5-18.5-27.5-35.3-41.6-50c32.6-30.3,63.2-46.9,84-46.9V36.1l0,0c-27.5,0-63.5,19.6-99.9,53.6c-36.4-33.8-72.4-53.2-99.9-53.2
		v22.3c20.7,0,51.4,16.5,84,46.6c-14,14.7-28,31.4-41.3,49.9c-22.6,2.4-44,6.1-63.6,11c-2.3-10-4-19.7-5.2-29
		c-4.7-38.2,1.1-67.9,14.6-75.8c3-1.8,6.9-2.6,11.5-2.6V36.6l0,0c-8.4,0-16,1.8-22.6,5.6c-28.1,16.2-34.4,66.7-19.9,130.1
		c-62.2,19.2-102.7,49.9-102.7,82.3c0,32.5,40.7,63.3,103.1,82.4c-14.4,63.6-8,114.2,20.2,130.4c6.5,3.8,14.1,5.6,22.5,5.6
		c27.5,0,63.5-19.6,99.9-53.6c36.4,33.8,72.4,53.2,99.9,53.2c8.4,0,16-1.8,22.6-5.6c28.1-16.2,34.4-66.7,19.9-130.1
		C460.9,317.8,501.4,287,501.4,254.6z M371.2,187.9c-3.7,12.9-8.3,26.2-13.5,39.5c-4.1-8-8.4-16-13.1-24c-4.6-8-9.5-15.8-14.4-23.4
		C344.4,182.1,358.1,184.7,371.2,187.9z M325.4,294.4c-7.8,13.5-15.8,26.3-24.1,38.2c-14.9,1.3-30,2-45.2,2c-15.1,0-30.2-0.7-45-1.9
		c-8.3-11.9-16.4-24.6-24.2-38c-7.6-13.1-14.5-26.4-20.8-39.8c6.2-13.4,13.2-26.8,20.7-39.9c7.8-13.5,15.8-26.3,24.1-38.2
		c14.9-1.3,30-2,45.2-2c15.1,0,30.2,0.7,45,1.9c8.3,11.9,16.4,24.6,24.2,38c7.6,13.1,14.5,26.4,20.8,39.8
		C339.8,267.9,332.9,281.3,325.4,294.4z M357.7,281.4c5.4,13.4,10,26.8,13.8,39.8c-13.1,3.2-26.9,5.9-41.2,8
		c4.9-7.7,9.8-15.6,14.4-23.7C349.3,297.5,353.6,289.4,357.7,281.4z M256.3,388.1c-9.3-9.6-18.6-20.3-27.8-32
		c9,0.4,18.2,0.7,27.5,0.7c9.4,0,18.7-0.2,27.8-0.7C274.8,367.8,265.5,378.5,256.3,388.1z M181.9,329.2c-14.2-2.1-27.9-4.7-41-7.9
		c3.7-12.9,8.3-26.2,13.5-39.5c4.1,8,8.4,16,13.1,24S177,321.6,181.9,329.2z M255.8,121.1c9.3,9.6,18.6,20.3,27.8,32
		c-9-0.4-18.2-0.7-27.5-0.7c-9.4,0-18.7,0.2-27.8,0.7C237.3,141.4,246.6,130.7,255.8,121.1z M181.8,180c-4.9,7.7-9.8,15.6-14.4,23.7
		c-4.6,8-8.9,16-13,24c-5.4-13.4-10-26.8-13.8-39.8C153.7,184.8,167.5,182.1,181.8,180z M91.3,305.2C55.9,290.1,33,270.3,33,254.6
		S55.9,219,91.3,204c8.6-3.7,18-7,27.7-10.1c5.7,19.6,13.2,40,22.5,60.9c-9.2,20.8-16.6,41.1-22.2,60.6
		C109.4,312.3,100,308.9,91.3,305.2z M145.1,448.1c-13.6-7.8-19.5-37.5-14.9-75.7c1.1-9.4,2.9-19.3,5.1-29.4
		c19.6,4.8,41,8.5,63.5,10.9c13.5,18.5,27.5,35.3,41.6,50c-32.6,30.3-63.2,46.9-84,46.9C151.9,450.7,148.1,449.8,145.1,448.1z
		 M382.3,371.9c4.7,38.2-1.1,67.9-14.6,75.8c-3,1.8-6.9,2.6-11.5,2.6c-20.7,0-51.4-16.5-84-46.6c14-14.7,28-31.4,41.3-49.9
		c22.6-2.4,44-6.1,63.6-11C379.4,352.9,381.2,362.6,382.3,371.9z M420.8,305.2c-8.6,3.7-18,7-27.7,10.1c-5.7-19.6-13.2-40-22.5-60.9
		c9.2-20.8,16.6-41.1,22.2-60.6c9.9,3.1,19.3,6.5,28.1,10.2c35.4,15.1,58.3,34.9,58.3,50.6C479.1,270.3,456.2,290.2,420.8,305.2z"/>
	<path class="st0" d="M155.9,36.5L155.9,36.5L155.9,36.5z"/>
	<circle class="st0" cx="256" cy="254.6" r="45.7"/>
	<path class="st0" d="M355.6,36.2L355.6,36.2L355.6,36.2z"/>
</g>
</svg>
