<?xml version="1.0" encoding="utf-8"?>
<!-- Generator: Adobe Illustrator 23.0.6, SVG Export Plug-In . SVG Version: 6.00 Build 0)  -->
<svg version="1.1" id="Layer_1" xmlns="http://www.w3.org/2000/svg" xmlns:xlink="http://www.w3.org/1999/xlink" x="0px" y="0px"
	 viewBox="0 0 80 80" enable-background="new 0 0 80 80" xml:space="preserve">
<path fill="#F07328" d="M61.8,67.7c-2.8,3.3-6.4,6-10.3,7.8H78v-7.8H61.8z"/>
<path fill="#554488" d="M66.4,47.5c0-15.5-12.6-28-28-28c-8.7,0-16.5,4-21.7,10.3c-1-0.3-1.9-0.8-2.6-1.4c-1.2-1.1-2-2.8-2-4.6
	c0-3.5,2.8-6.3,6.3-6.3c0.5,0,1.1,0.1,1.6,0.2l-2.4,4.9l5.3-1.8l7.4-2.5l-0.2-0.5L25.9,5.5l-2.5,5.1c-1.6-0.6-3.3-0.9-5.1-0.9
	c-7.8,0-14.1,6.3-14.1,14.1c0,4.7,2.3,8.8,5.8,11.3c0.8,0.6,1.6,1.1,2.5,1.5c-1.4,3.4-2.2,7.1-2.2,10.9c0,3.4,0.6,6.8,1.8,9.9
	L7,59.6l12.5,4.9l4.9-12.5l-5,2.2c-0.8-2.2-1.2-4.5-1.2-6.8c0-11.1,9.1-20.2,20.2-20.2s20.2,9.1,20.2,20.2
	c0,11.1-9.1,20.2-20.2,20.2H2.9v7.8h35.4C53.8,75.5,66.4,62.9,66.4,47.5z"/>
<path fill="#F07328" d="M16.7,29.7c-1-0.3-1.9-0.8-2.6-1.4c-1.2-1.1-2-2.8-2-4.6c0-3.5,2.8-6.3,6.3-6.3c0.5,0,1.1,0.1,1.6,0.2
	l-2.4,4.9l5.3-1.8l7.4-2.5l-0.2-0.5L25.9,5.5l-2.5,5.1c-1.6-0.6-3.3-0.9-5.1-0.9c-7.8,0-14.1,6.3-14.1,14.1c0,4.7,2.3,8.8,5.8,11.3
	c0.8,0.6,1.6,1.1,2.5,1.5L16.7,29.7z"/>
</svg>
