<?xml version="1.0" encoding="utf-8"?>
<!-- Generator: Adobe Illustrator 21.0.2, SVG Export Plug-In . SVG Version: 6.00 Build 0)  -->
<svg version="1.1" id="Layer_1" xmlns="http://www.w3.org/2000/svg" xmlns:xlink="http://www.w3.org/1999/xlink" x="0px" y="0px"
	 viewBox="0 0 214.5 184.5" style="enable-background:new 0 0 214.5 184.5;" xml:space="preserve">
<style type="text/css">
	.st0{fill:#D1A366;}
	.st1{fill:#5C686D;}
	.st2{fill:#EFD4A8;}
	.st3{fill:#FFF4E7;}
</style>
<g>
	<g>
		<path class="st0" d="M55.2,44.3h142v56.6v29.5v23.3c0,8.3-6.7,15-15,15l0,0c-8.3,0-15-6.7-15-15v-23.3h-112V44.3z"/>
		<path class="st1" d="M182.2,170.7c-9.3,0-16.9-7.6-16.9-16.9v-21.4H55.2c-1.1,0-1.9-0.9-1.9-1.9V44.3c0-1.1,0.9-1.9,1.9-1.9h142
			c1.1,0,1.9,0.9,1.9,1.9v109.4C199.2,163.1,191.6,170.7,182.2,170.7z M57.1,128.4h110.1c1.1,0,1.9,0.9,1.9,1.9v23.3
			c0,7.2,5.9,13.1,13.1,13.1c7.2,0,13.1-5.9,13.1-13.1V46.2H57.1V128.4z"/>
		<g>
			<path class="st1" d="M184.6,68.2h-54.8c-1.1,0-1.9-0.9-1.9-1.9c0-1.1,0.9-1.9,1.9-1.9h54.8c1.1,0,1.9,0.9,1.9,1.9
				C186.5,67.3,185.6,68.2,184.6,68.2z"/>
			<path class="st1" d="M184.6,84.9h-54.8c-1.1,0-1.9-0.9-1.9-1.9c0-1.1,0.9-1.9,1.9-1.9h54.8c1.1,0,1.9,0.9,1.9,1.9
				C186.5,84.1,185.6,84.9,184.6,84.9z"/>
			<path class="st1" d="M184.6,101.7h-54.8c-1.1,0-1.9-0.9-1.9-1.9c0-1.1,0.9-1.9,1.9-1.9h54.8c1.1,0,1.9,0.9,1.9,1.9
				C186.5,100.8,185.6,101.7,184.6,101.7z"/>
			<path class="st1" d="M184.6,118.4h-54.8c-1.1,0-1.9-0.9-1.9-1.9c0-1.1,0.9-1.9,1.9-1.9h54.8c1.1,0,1.9,0.9,1.9,1.9
				C186.5,117.5,185.6,118.4,184.6,118.4z"/>
			<path class="st1" d="M184.6,135.1h-54.8c-1.1,0-1.9-0.9-1.9-1.9c0-1.1,0.9-1.9,1.9-1.9h54.8c1.1,0,1.9,0.9,1.9,1.9
				C186.5,134.3,185.6,135.1,184.6,135.1z"/>
			<path class="st1" d="M184.6,151.9h-54.8c-1.1,0-1.9-0.9-1.9-1.9c0-1.1,0.9-1.9,1.9-1.9h54.8c1.1,0,1.9,0.9,1.9,1.9
				C186.5,151,185.6,151.9,184.6,151.9z"/>
		</g>
		<path class="st2" d="M64.2,14.5h102.9v96.2v43c0,8.3,6.7,15,15,15h-15h-19.4H40.2l0,0c-8.3,0-15-6.7-15-15v-52.8V53.6L64.2,14.5z"
			/>
		<path class="st1" d="M182.2,170.7l-142,0c-9.3,0-16.9-7.6-16.9-16.9V53.6c0-0.5,0.2-1,0.6-1.4l39.1-39.1c0.4-0.4,0.8-0.6,1.4-0.6
			l102.9,0c1.1,0,1.9,0.9,1.9,1.9v139.2c0,7.2,5.9,13.1,13.1,13.1c1.1,0,1.9,0.9,1.9,1.9C184.1,169.8,183.3,170.7,182.2,170.7z
			 M27.1,54.4v99.3c0,7.2,5.9,13.1,13.1,13.1l131.3,0c-3.8-3.1-6.2-7.8-6.2-13.1V16.4L65,16.4L27.1,54.4z"/>
		<path class="st1" d="M155.9,28.2H59.3c-1.1,0-1.9-0.9-1.9-1.9c0-1.1,0.9-1.9,1.9-1.9h96.6c1.1,0,1.9,0.9,1.9,1.9
			C157.8,27.3,156.9,28.2,155.9,28.2z"/>
		<path class="st1" d="M155.9,72.5H35c-1.1,0-1.9-0.9-1.9-1.9c0-1.1,0.9-1.9,1.9-1.9h120.8c1.1,0,1.9,0.9,1.9,1.9
			C157.8,71.6,156.9,72.5,155.9,72.5z"/>
		<g>
			<path class="st1" d="M62.9,37.8l10.1,12.8v-8.8c0-1.2-0.2-2.1-0.5-2.5c-0.5-0.6-1.3-0.9-2.4-0.8v-0.6h6.8v0.6
				c-0.9,0.1-1.5,0.3-1.8,0.4c-0.3,0.2-0.5,0.5-0.7,0.9c-0.2,0.4-0.3,1.1-0.3,2.1v17.1h-0.5L59.8,41.7v13.1c0,1.2,0.3,2,0.8,2.4
				c0.5,0.4,1.2,0.6,1.9,0.6h0.5v0.6h-7.3v-0.6c1.1,0,1.9-0.2,2.4-0.7c0.4-0.5,0.7-1.2,0.7-2.3V40.2l-0.4-0.5
				c-0.4-0.5-0.8-0.9-1.2-1.1c-0.3-0.2-0.8-0.3-1.4-0.3v-0.6H62.9z"/>
			<path class="st1" d="M86.1,39v8.4h0.4c1.3,0,2.2-0.4,2.8-1.2c0.6-0.8,1-2,1.1-3.6H91v10.8h-0.6c-0.1-1.2-0.4-2.1-0.8-2.9
				c-0.4-0.7-0.8-1.3-1.4-1.5c-0.5-0.3-1.3-0.4-2.2-0.4v5.8c0,1.1,0,1.8,0.1,2.1c0.1,0.3,0.3,0.5,0.5,0.6c0.3,0.2,0.7,0.2,1.3,0.2
				h1.2c1.9,0,3.5-0.4,4.6-1.3c1.2-0.9,2-2.2,2.5-4.1h0.6L96,58.3H78.3v-0.6h0.7c0.6,0,1.1-0.1,1.4-0.3c0.3-0.1,0.5-0.4,0.6-0.7
				c0.1-0.2,0.2-0.9,0.2-1.9V41.3c0-0.9,0-1.5-0.1-1.7c-0.1-0.4-0.3-0.6-0.6-0.8c-0.4-0.3-0.9-0.4-1.6-0.4h-0.7v-0.6h17.2v6.1h-0.6
				c-0.3-1.5-0.7-2.6-1.2-3.2c-0.5-0.6-1.3-1.1-2.3-1.4C90.8,39,89.8,39,88.2,39H86.1z"/>
			<path class="st1" d="M129.1,37.8v0.6c-0.4,0-0.7,0.1-1,0.3c-0.3,0.2-0.5,0.5-0.7,0.8c-0.1,0.1-0.4,0.9-1,2.4l-6.4,17h-0.6
				l-5.1-13.3l-5.6,13.3h-0.6L101.4,42c-0.7-1.7-1.2-2.7-1.4-3.1c-0.3-0.4-0.7-0.6-1.4-0.6v-0.6h8.9v0.6c-0.7,0-1.2,0.1-1.4,0.3
				c-0.2,0.2-0.4,0.4-0.4,0.7c0,0.4,0.2,1.2,0.7,2.4l4,10l3.2-7.8l-0.8-2.2c-0.5-1.2-0.8-2-1.1-2.4c-0.3-0.4-0.5-0.7-0.9-0.9
				c-0.3-0.2-0.8-0.3-1.4-0.3v-0.6h10v0.6c-0.7,0-1.2,0.1-1.5,0.2c-0.2,0.1-0.4,0.2-0.5,0.4c-0.1,0.2-0.2,0.4-0.2,0.6
				c0,0.2,0.2,0.9,0.7,2.1l3.7,9.7l3.4-8.8c0.4-0.9,0.6-1.5,0.7-1.9c0.1-0.3,0.1-0.6,0.1-0.9c0-0.4-0.1-0.7-0.4-1
				c-0.3-0.2-0.8-0.4-1.6-0.4v-0.6H129.1z"/>
			<path class="st1" d="M144,37.3l0.2,6.9h-0.6c-0.3-1.7-1-3.1-2.2-4.1c-1.1-1-2.4-1.6-3.7-1.6c-1,0-1.8,0.3-2.4,0.8
				c-0.6,0.6-0.9,1.2-0.9,1.9c0,0.5,0.1,0.9,0.3,1.2c0.3,0.5,0.8,0.9,1.4,1.4c0.5,0.3,1.6,0.9,3.3,1.8c2.4,1.2,4,2.3,4.9,3.4
				c0.8,1.1,1.2,2.3,1.2,3.6c0,1.7-0.7,3.2-2,4.4c-1.3,1.2-3,1.9-5.1,1.9c-0.6,0-1.3-0.1-1.8-0.2c-0.6-0.1-1.3-0.4-2.2-0.7
				c-0.5-0.2-0.9-0.3-1.2-0.3c-0.3,0-0.5,0.1-0.8,0.3c-0.3,0.2-0.5,0.5-0.7,0.9H131V51h0.6c0.4,2.2,1.3,3.8,2.6,5
				c1.3,1.1,2.6,1.7,4.1,1.7c1.1,0,2-0.3,2.7-0.9c0.7-0.6,1-1.3,1-2.2c0-0.5-0.1-1-0.4-1.4c-0.3-0.5-0.6-0.9-1.2-1.3
				c-0.5-0.4-1.5-0.9-2.8-1.6c-1.9-0.9-3.2-1.7-4-2.4c-0.8-0.6-1.4-1.4-1.9-2.2c-0.4-0.8-0.7-1.7-0.7-2.6c0-1.6,0.6-3,1.8-4.2
				c1.2-1.2,2.7-1.7,4.5-1.7c0.7,0,1.3,0.1,1.9,0.2c0.5,0.1,1.1,0.3,1.7,0.7c0.7,0.3,1.2,0.5,1.4,0.5c0.3,0,0.5-0.1,0.6-0.2
				c0.2-0.2,0.3-0.6,0.4-1.2H144z"/>
		</g>
		<g>
			<polygon class="st3" points="64.2,53.6 64.2,14.5 25.1,53.6 			"/>
			<path class="st1" d="M64.2,55.5H25.1c-0.8,0-1.5-0.5-1.8-1.2c-0.3-0.7-0.1-1.5,0.4-2.1l39.1-39.1c0.5-0.5,1.4-0.7,2.1-0.4
				c0.7,0.3,1.2,1,1.2,1.8v39.1C66.2,54.7,65.3,55.5,64.2,55.5z M29.8,51.7h32.6V19.1L29.8,51.7z"/>
		</g>
		<rect x="39.5" y="91.6" class="st3" width="46.1" height="46.1"/>
		<g>
			<path class="st1" d="M155.9,97.8h-54.8c-1.1,0-1.9-0.9-1.9-1.9c0-1.1,0.9-1.9,1.9-1.9h54.8c1.1,0,1.9,0.9,1.9,1.9
				C157.8,97,156.9,97.8,155.9,97.8z"/>
			<path class="st1" d="M155.9,112.7h-54.8c-1.1,0-1.9-0.9-1.9-1.9c0-1.1,0.9-1.9,1.9-1.9h54.8c1.1,0,1.9,0.9,1.9,1.9
				C157.8,111.8,156.9,112.7,155.9,112.7z"/>
			<path class="st1" d="M155.9,127.5h-54.8c-1.1,0-1.9-0.9-1.9-1.9c0-1.1,0.9-1.9,1.9-1.9h54.8c1.1,0,1.9,0.9,1.9,1.9
				C157.8,126.6,156.9,127.5,155.9,127.5z"/>
			<path class="st1" d="M155.9,142.3h-54.8c-1.1,0-1.9-0.9-1.9-1.9c0-1.1,0.9-1.9,1.9-1.9h54.8c1.1,0,1.9,0.9,1.9,1.9
				C157.8,141.5,156.9,142.3,155.9,142.3z"/>
			<path class="st1" d="M155.9,157.1H41.8c-1.1,0-1.9-0.9-1.9-1.9c0-1.1,0.9-1.9,1.9-1.9h114.1c1.1,0,1.9,0.9,1.9,1.9
				C157.8,156.3,156.9,157.1,155.9,157.1z"/>
		</g>
	</g>
</g>
</svg>
